<svg width="94px" height="98px" version="1.1" xmlns="http://www.w3.org/2000/svg" xmlns:xlink="http://www.w3.org/1999/xlink" xml:space="preserve" xmlns:serif="http://www.serif.com/" style="fill-rule:evenodd;clip-rule:evenodd;stroke-linejoin:round;stroke-miterlimit:2;">
    <g>
        <path d="M22.976,32.482C22.867,30.417 22.792,28.699 22.757,27.778C22.781,26.883 22.035,26.313 21.675,25.574C20.14,27.824 16.703,26.492 15.695,25.813C14.351,24.84 17.332,23.043 17.921,22.821C17.058,22.395 16.257,21.852 15.546,21.203C15.042,20.746 14.328,20.598 13.683,20.817L13.683,20.821C10.613,21.844 8.367,19.43 7.714,17.496C7.585,17.117 7.769,16.707 8.136,16.555C9.824,15.86 11.292,15.957 12.484,16.418C12.128,15.211 12.046,13.938 12.246,12.696L12.249,12.696C7.414,9.914 9.039,5.051 9.058,5C9.195,4.61 9.621,4.403 10.011,4.539C12.148,5.293 13.484,6.551 13.972,8.445C14.589,7.426 15.421,6.914 15.546,5.758C15.894,3.055 18.589,1.387 22.035,1.442C22.234,1.438 22.425,1.516 22.57,1.653L22.57,1.656C23.023,1.988 22.839,4.149 21.23,5.848C20.316,6.762 19.078,7.313 17.542,7.496C15.824,7.742 15.187,9.199 14.371,10.742C14.796,10.274 18.152,8.207 18.507,9.82C18.769,11.012 19.398,14.473 14.913,15.649C14.644,15.707 14.413,15.887 14.288,16.137C14.167,16.387 14.167,16.68 14.285,16.93C14.85,18.178 15.669,19.294 16.687,20.211C16.421,18.711 16.968,17.184 18.273,15.567C19.21,14.61 20.175,16.274 20.402,18.613C20.441,19.399 20.191,20.094 19.765,20.805C19.62,21.043 19.593,21.328 19.687,21.59C19.781,21.848 19.991,22.047 20.253,22.133C20.596,22.238 20.942,22.324 21.292,22.394C21.156,21.164 21.952,19.981 23.23,19.864C25.3,19.684 26.886,19.719 28.238,19.934C28.316,19 28.769,17.906 30.066,16.84C30.515,16.43 31.05,16.172 31.499,16.719C31.566,16.813 32.374,19.899 30.558,21.41C31.886,21.18 33.124,20.578 34.128,19.668C34.273,19.539 34.347,19.348 34.335,19.153C34.32,18.957 34.218,18.778 34.058,18.668C31.98,17.235 31.679,14.567 31.87,13.121C31.902,12.918 32.007,12.738 32.171,12.617C32.335,12.496 32.538,12.449 32.738,12.481C34.558,12.785 36.023,14.594 36.113,16.668C36.409,15.692 36.62,14.692 36.749,13.68C36.82,12.981 36.429,12.317 35.784,12.043C33.39,11 31.613,8.508 32.417,5.348C32.499,4.977 32.851,4.727 33.23,4.766L33.23,4.762C33.277,4.77 37.495,5.281 37.945,10.098C38.691,9.199 39.823,8.371 41.558,7.891C41.956,7.781 42.366,8.012 42.48,8.406C43.089,10.582 42.351,13.586 39.187,14.578C38.48,14.793 37.944,15.363 37.773,16.078C37.495,17.274 36.995,18.406 36.304,19.414C37.37,19.352 38.675,19.543 40.183,20.293C40.366,20.387 40.507,20.555 40.566,20.754C40.624,20.953 40.597,21.168 40.495,21.348L40.491,21.348C39.347,23.313 36.355,25.137 33.565,22.121C32.613,22.753 31.56,23.226 30.448,23.511C31.632,25.254 29.151,28.238 28.37,28.621C28.726,31.965 29.222,34.602 29.847,36.461C30.593,38.684 31.261,41.383 31.304,42.356C31.515,44.758 36.269,47.578 37.753,48.309C35.964,44.82 36.038,42.969 32.437,40.344C31.667,39.731 32.589,38.563 33.362,39.164C33.773,39.484 34.159,39.801 34.523,40.106C35.886,41.254 37.132,42.981 37.698,44.512C38.308,46.187 39.101,47.789 40.069,49.285L40.069,49.289C41.105,49.613 41.761,49.973 42.773,49.637C44.491,49.059 45.78,49.219 46.616,49.5C46.667,48.824 46.691,48.145 46.702,47.574C45.042,47.121 42.784,44.832 42.175,42.582C41.554,42.152 40.89,41.789 40.191,41.504C39.855,41.414 38.687,41.024 38.116,39.852C37.659,38.914 37.706,37.77 38.249,36.434C36.909,35.281 36.663,33.719 37.202,32.277C37.284,32.07 37.445,31.902 37.648,31.816C37.851,31.727 38.081,31.727 38.288,31.809C39.484,32.309 40.765,32.582 42.062,32.609L42.066,32.606C42.444,32.625 42.901,32.574 43.089,32.195C43.366,31.656 42.917,31 42.382,31.098C40.03,31.519 37.937,30.016 37.523,28.996C37.39,28.664 37.55,28.285 37.882,28.152C38.374,27.961 38.597,28.535 39.292,28.973C39.456,26.645 41.425,24.969 44.077,24.766C46.214,21.477 51.366,21.586 53.109,24.938C55.163,24.336 58.128,26.098 58.183,28.734C58.917,27.949 60.05,29.039 59.269,29.781C59.019,29.996 57.042,31.313 54.386,31.531C53.991,31.559 53.679,31.879 53.663,32.277C53.663,32.488 53.749,32.691 53.905,32.832C54.062,32.977 54.273,33.047 54.483,33.027C55.851,32.891 57.191,32.555 58.46,32.023C60.151,31.586 59.554,34.535 58.901,35.539C61.257,38.309 59.007,43.531 54.694,42.625C54.273,42.898 53.812,43.098 53.327,43.215C53.183,43.691 52.987,44.148 52.737,44.578L52.737,44.582C52.773,46.711 52.796,48.551 52.831,49.551C53.105,49.52 53.382,49.516 53.659,49.535L53.659,49.539C55.198,47.355 57.964,48.184 58.894,50.402C60.519,48.379 61.804,45.766 62.714,42.629C64.347,36.836 76.308,27.809 92.066,21.462C95.683,20.153 98.87,23.646 95.652,26.532C97.194,27.782 96.554,30.794 94.87,32.114C96.077,33.993 95.241,35.868 93.323,37.704C94.987,40.204 93.503,42.196 91.14,43.657C91.898,44.45 92.253,45.544 92.105,46.63L92.109,46.638C91.745,49.548 88.534,50.532 87.093,50.829C86.898,53.782 84.183,55.419 80.687,55.665C80.417,58.302 77.964,59.767 74.859,59.868C74.648,61.888 72.73,63.118 70.406,62.856C70.199,64.938 68.253,65.942 66.14,65.544C66.601,67.181 67.105,70.145 68.046,71.575C69.398,73.852 71.827,78.817 72.87,86.477C73.019,88.372 74.952,89.051 75.851,90.59C77.292,92.786 77.956,97.243 74.558,97.43C74.031,97.426 73.531,97.196 73.183,96.794C72.836,96.396 72.68,95.87 72.749,95.348C72.749,95.348 72.749,95.345 72.749,95.344C72.909,93.816 72.776,93.301 72.261,93.004C72.226,94.669 70.62,95.008 69.675,95.165C69.292,95.243 68.909,95.008 68.808,94.629C67.163,89.293 71.472,90.113 65.562,81.82C64.004,79.759 63.051,77.303 62.812,74.727C62.812,74.726 62.812,74.723 62.812,74.723C62.761,73.193 60.479,69.178 59.179,67.031C58.484,68.012 57.558,68.805 56.484,69.344L55.824,72.484C58.445,75.727 60.484,79.395 61.847,83.332L61.847,83.34C64.48,90.797 64.277,97.18 64.261,97.574C64.245,97.952 63.954,98.256 63.581,98.293C63.581,98.293 63.578,98.293 63.577,98.293C61.391,98.48 59.326,98.563 57.386,98.563C41.417,98.449 34.007,93.281 33.394,92.688C33.144,81.883 39.812,72.981 40.835,71.735L40.707,69.899C39.113,69.465 38.453,68.344 38.253,67.488C37.425,67.152 36.785,66.844 36.359,66.145C34.222,66.832 31.765,66.332 31.343,64.008C29.109,64.371 27.171,63.363 26.804,61.434C23.793,61.488 21.32,60.328 20.847,57.793C17.414,57.715 14.726,56.438 14.289,53.586C12.855,53.383 9.656,52.625 9.125,49.887C8.914,48.879 9.187,47.828 9.855,47.043C7.519,45.813 5.925,44.043 7.378,41.563C5.417,39.942 4.496,38.25 5.531,36.391C3.863,35.203 3.007,32.656 4.425,31.176C2.949,30.051 2.804,28.719 3.218,27.781C3.871,26.305 5.835,25.594 7.691,26.164C12.974,27.777 18.094,29.894 22.976,32.482ZM90.618,46.445L90.614,46.445C90.708,45.675 90.395,44.913 89.79,44.433C87.669,45.511 85.391,46.246 83.04,46.613C82.528,47.136 81.954,47.601 81.333,47.992C81.497,48.456 81.583,48.949 81.587,49.441C83.137,49.558 84.696,49.558 86.247,49.445L86.251,49.445C86.419,49.425 90.309,48.917 90.618,46.445ZM4.59,28.386L4.59,28.382C4.051,30.167 7.761,31.105 9.922,32.132C12.34,33.14 15.34,34.39 18.484,35.952C20.277,35.929 21.617,36.538 23.254,37.097C23.187,36.128 23.129,35.163 23.074,34.241C18.039,31.495 12.738,29.269 7.25,27.597L7.25,27.601C5.992,27.214 4.891,27.706 4.59,28.386ZM15.043,52.163L15.043,52.159C16.34,52.179 17.633,52.124 18.926,51.995C19.027,51.488 19.277,51.019 19.644,50.656C19.016,50.312 18.43,49.89 17.898,49.406C15.617,49.179 13.383,48.613 11.269,47.726C10.726,48.187 10.469,48.902 10.598,49.601L10.598,49.605C11.039,51.89 14.891,52.156 15.043,52.163ZM91.864,36.999C93.462,35.55 94.426,34.335 93.661,32.992C91.563,34.327 89.38,35.523 87.122,36.57C86.727,37.691 86.157,38.742 85.43,39.679L85.43,39.683C88.462,38.847 91.407,37.253 91.864,36.999ZM78.434,54.164C81.953,54.367 85.004,53.671 85.571,50.988C84.172,51.066 82.766,51.046 81.371,50.929L81.371,50.925C81.032,51.999 80.215,53.187 78.434,54.164ZM92.497,40.206C92.575,39.632 92.438,39.05 92.102,38.574C90.895,39.202 87.817,40.738 84.86,41.363C85.016,42.554 84.817,43.765 84.29,44.843L84.294,44.843C88.216,43.871 91.77,42.042 92.497,40.206ZM95.024,28.925L95.024,28.921C95.114,27.941 94.712,27.609 94.325,27.445C91.747,28.863 89.048,30.132 86.126,31.699C86.38,31.906 87.45,32.89 87.438,34.761C89.473,33.761 91.446,32.644 93.344,31.41L93.344,31.414C94.051,30.921 94.919,30.093 95.024,28.925ZM94.286,25.698C95.297,24.991 95.696,24.182 95.348,23.534C94.981,22.843 93.828,22.393 92.598,22.862C77.376,28.956 65.637,37.855 64.153,43.046C63.215,46.28 61.887,49.003 60.208,51.155C61.02,51.679 61.501,52.589 61.485,53.554C61.723,53.757 61.95,53.98 62.157,54.214C64.29,52.109 65.958,49.585 67.063,46.8C67.219,46.421 67.653,46.241 68.032,46.394C68.415,46.546 68.602,46.976 68.454,47.359C67.247,50.398 65.407,53.148 63.059,55.429C63.833,56.53 64.485,58.816 64.833,60.382C66.602,59.429 66.383,58.058 65.891,57.339C65.801,57.097 65.848,56.823 66.008,56.62C66.169,56.417 66.419,56.312 66.676,56.339C67.688,56.671 69.399,57.144 70.501,56.648C70.837,56.511 71.09,56.233 71.208,55.89L71.208,55.894C71.649,54.675 70.512,54.065 70.278,53.956C69.958,53.804 69.786,53.444 69.868,53.097C69.954,52.749 70.27,52.511 70.629,52.526C74.528,52.698 76.977,51.366 77.09,49.98C77.161,49.257 76.731,48.581 76.047,48.335L73.653,48.73C73.614,48.733 73.571,48.737 73.532,48.737L73.532,48.741C72.629,48.749 72.516,47.394 73.411,47.253L75.965,46.831C76.274,46.749 80.125,45.71 80.051,43.069C80.075,42.62 79.778,42.218 79.344,42.108C77.934,43.05 76.45,43.87 74.899,44.562C74.52,44.722 74.079,44.546 73.915,44.163C73.754,43.784 73.93,43.343 74.313,43.179C75.86,42.487 77.348,41.655 78.751,40.702C80.387,39.472 81.934,38.003 82.844,36.749C83.411,35.964 83.684,35.304 83.497,34.925C83.231,34.355 82.735,34.089 82.122,33.968C78.477,36.155 74.727,38.796 71.845,41.843C71.161,42.558 70.087,41.523 70.755,40.812C77.891,33.374 87.329,29.687 94.286,25.698ZM68.723,43.332C69.594,42.699 70.559,43.973 69.711,44.637C68.84,45.273 67.875,43.996 68.723,43.332ZM16.445,54.831L16.449,54.835C17.91,56.141 19.838,56.476 22.359,56.249C21.285,55.636 19.84,54.648 19.211,53.476C18.086,53.593 16.953,53.659 15.82,53.663C15.926,54.101 16.14,54.503 16.445,54.831ZM55.531,93.034C56.363,89.667 56.25,86.14 55.211,82.835C53.461,87.812 50.652,92.351 46.98,96.136C49.047,96.511 51.133,96.769 53.23,96.91C54.062,95.66 54.832,94.366 55.531,93.034ZM6.809,37.179L6.809,37.175C6.266,38.249 6.816,39.238 8.805,40.761C9.309,40.992 12.738,42.538 15.988,43.074C15.07,42.218 14.246,41.265 13.531,40.23C11.227,39.363 8.98,38.343 6.809,37.179ZM21.363,44.98C20.965,45.085 20.703,45.464 20.746,45.875L20.75,45.871C20.832,48.32 24.606,49.082 24.953,49.148L27.074,49.32C26.066,48.316 25.32,47.746 24.66,46.679C23.43,46.23 22.527,45.632 21.363,44.98ZM35.922,60.855L35.926,60.858C36.616,61.387 37.338,61.593 38.024,61.468C38.497,60.343 39.297,59.523 39.77,58.656C35.809,56.656 31.821,53.566 28.879,50.976L24.965,50.659C24.656,50.8 23.906,51.245 24.051,52.206C24.238,53.46 26.77,54.589 30.524,54.222C30.883,54.187 31.215,54.413 31.317,54.757C31.414,55.105 31.254,55.472 30.934,55.636L30.938,55.64C30.727,55.749 29.676,56.363 30.16,57.433C30.805,58.859 33.539,58.046 34.446,57.648C35.094,57.347 35.782,58.136 35.383,58.734C35.27,58.921 34.748,59.942 35.922,60.855ZM52.453,77.484C48.969,81.894 42.907,88.55 35.586,92.347C37.157,93.207 40.364,94.703 45.219,95.781L45.215,95.777C50.391,90.777 53.012,84.937 54.328,80.621C53.802,79.521 53.174,78.471 52.453,77.484ZM52.715,41.808C52.715,41.808 52.718,41.808 52.719,41.808C54.401,41.68 55.952,39.269 54.512,38.285C53.496,38.316 53.332,38.98 53.312,39.277C53.258,40.242 51.824,40.199 51.812,39.234L51.812,37.094C50.562,36.758 49.672,35.648 49.617,34.351C48.013,34.26 46.675,33.374 46.23,32C43.086,33.484 42.965,35.801 42.961,36.031L43.234,40.211C43.312,41.601 43.781,42.937 44.582,44.074C45.906,45.918 47.414,46.262 47.793,46.316C51.453,45.515 51.949,42.578 51.969,42.453C52.031,42.087 52.341,41.818 52.715,41.808ZM45.887,39.121C46.754,39.305 46.602,40.613 45.727,40.601C45.629,40.617 44.742,40.402 44.629,40.383C43.672,40.156 43.985,38.726 44.95,38.918L45.887,39.121ZM48.77,40.605C47.895,40.613 47.743,39.304 48.61,39.125L49.547,38.921C50.516,38.726 50.829,40.16 49.868,40.386C49.758,40.402 48.86,40.617 48.77,40.605ZM8.387,43.835C9.238,45.515 12.754,46.995 16.555,47.71C16.036,46.766 15.903,45.658 16.179,44.62C13.159,44.214 9.922,42.894 8.66,42.343C8.379,42.784 8.281,43.32 8.387,43.835ZM36.043,84.546C35.43,86.663 35.027,88.839 34.847,91.034L34.843,91.038C42.031,87.315 48.098,80.561 51.484,76.253C50.234,74.784 48.828,73.456 47.293,72.288L47.293,72.292C41.649,72.968 39.121,76.124 37.219,81.14C38.563,79.807 40.008,78.518 41.535,77.28C42.313,76.671 43.235,77.811 42.481,78.444C40.172,80.3 38.02,82.343 36.043,84.546ZM45.195,74.469C46.269,74.403 46.39,76 45.32,76.102C44.25,76.164 44.125,74.571 45.195,74.469ZM56.637,56.683C56.637,56.684 56.637,56.687 56.637,56.687C56.445,58.464 56.164,60.712 55.816,62.34C55.73,62.746 55.332,63.008 54.926,62.922C54.52,62.836 54.262,62.437 54.348,62.031L54.352,62.031C54.602,60.879 54.867,58.969 55.016,57.683C54.578,58.164 54.098,58.656 53.57,59.156C53.27,59.445 52.793,59.43 52.508,59.133C52.223,58.832 52.234,58.355 52.535,58.07C54.848,55.851 56.574,53.539 57.582,51.14C57.426,50.793 57.211,50.469 56.953,50.183C56.672,49.883 56.262,49.73 55.852,49.777C55.438,49.824 55.074,50.066 54.867,50.426C53.234,53.32 48.32,60.484 37.984,64.488C37.769,64.57 37.617,64.761 37.582,64.988L37.578,64.988C37.488,65.601 38.293,65.906 38.914,66.132C42.152,64.972 45.242,63.437 48.125,61.562C48.469,61.331 48.933,61.425 49.164,61.773C49.39,62.117 49.297,62.581 48.953,62.812C46.082,64.683 43.008,66.222 39.793,67.406C40.414,68.941 42.754,68.628 44.015,68.136L48.894,66.816C48.894,66.816 49.711,66.851 51.367,67.316C51.367,67.316 57.625,68.148 58.215,61.093C57.914,60.273 57.918,59.374 58.223,58.558L59.902,53.992L59.902,53.988C60.234,53.105 59.602,52.379 58.809,52.101C58.352,53.109 57.805,54.07 57.172,54.976C56.883,55.507 56.7,56.083 56.637,56.683ZM66.754,72.34C64.832,69.145 63.754,59.894 62.031,56.629C59.051,60.668 62.519,62.051 60.531,66.512L63.082,71.168C63.766,72.187 64.187,73.363 64.305,74.586C64.516,76.883 65.363,79.074 66.754,80.914L66.754,80.91C70.195,85.851 70.82,87.863 69.93,91.824C69.754,92.402 69.887,92.992 70.062,93.547C70.613,93.386 70.726,93.328 70.746,92.988C70.93,90.863 72.777,91.176 73.723,92.301C74.266,93.011 74.434,94.074 74.23,95.551C74.219,96.191 75.168,95.926 75.309,95.515C75.789,94.652 75.461,92.801 74.578,91.387C73.398,89.723 71.586,89.027 71.383,86.68C70.336,79.004 67.797,74.094 66.754,72.34ZM17.676,40.105C19.039,41.718 21.824,43.644 23.965,44.73C23.715,42.972 23.543,40.925 23.375,38.761C22.223,38.273 21.035,37.882 19.816,37.589C19.727,37.562 17.543,36.949 16.887,38.433C16.715,38.769 17.102,39.457 17.676,40.105ZM22.793,23.933C22.808,24.542 23.05,25.128 23.472,25.57C23.953,26.183 24.23,26.933 24.261,27.714L24.261,27.718C24.363,30.304 24.749,39.156 25.425,44.39C25.531,45.234 25.91,46.023 26.499,46.64L26.499,46.632C30.265,50.468 35.226,54.62 40.515,57.339L41.355,55.855C41.851,55.003 43.129,55.726 42.66,56.593C41.605,58.374 41.551,58.804 39.973,61.042C39.691,61.425 39.469,61.847 39.316,62.296L39.316,62.3C46.609,58.984 50.726,54.085 52.695,51.097C52.133,51.386 51.414,51.265 51.359,50.535C51.359,50.515 51.324,49.445 51.289,47.73C50.426,48.691 49.32,49.406 48.094,49.804C48.023,50.574 47.914,51.343 47.762,52.101L47.758,52.105C47.57,53.078 46.129,52.82 46.281,51.847L46.426,51.027C45.937,50.792 44.891,50.503 43.25,51.054C40.668,51.968 34.363,48.988 30.715,44.749C30.164,44.093 29.844,43.273 29.805,42.413C29.77,41.679 29.16,39.128 28.422,36.933C27.731,34.882 27.195,31.976 26.828,28.292C26.797,27.972 26.977,27.663 27.273,27.535C27.32,27.511 28.594,26.898 29.23,24.91C29.301,24.66 29.254,24.394 29.098,24.187C28.941,23.98 28.699,23.859 28.441,23.859L25.473,23.859C25.453,24.05 25.516,24.242 25.641,24.386C25.766,24.531 25.949,24.617 26.141,24.624L26.145,24.624C27.125,24.66 27.105,26.124 26.113,26.124C24.926,26.097 23.98,25.128 23.973,23.945L23.973,23.109C23.973,22.695 24.309,22.359 24.723,22.359L28.332,22.359C28.371,21.906 28.285,21.425 27.754,21.363C26.301,21.218 24.836,21.214 23.383,21.351C23.051,21.386 22.793,21.663 22.793,21.999L22.793,23.933ZM5.246,33.367L5.246,33.37C5.57,35.419 8.588,36.426 12.578,38.245C12.289,37.16 12.465,36.105 13.555,35.308C10.832,34.117 8.254,33.109 5.836,31.999C5.313,32.245 5.134,32.662 5.246,33.367ZM75.977,18.047C76.961,17.785 76.617,16.356 75.629,16.586C72.34,17.473 69.266,17.051 66.891,16.332C66.637,16.254 66.461,16.031 66.442,15.766C66.422,15.504 66.571,15.254 66.813,15.145L66.813,15.149C69.219,14.082 71.711,13.867 74.567,14.442C75.836,14.692 77.129,14.828 78.426,14.84L78.43,14.836C80.004,14.785 81.196,16.563 80.016,17.75C74.094,22.926 67.582,21.606 64.27,18.781C63.938,18.496 63.543,18.285 63.121,18.164C62.301,17.942 61.508,17.629 60.754,17.238L60.754,17.234C59.891,16.758 60.578,15.461 61.457,15.91C61.922,16.156 68.493,18.594 71.75,18.594C73.176,18.598 74.598,18.414 75.977,18.047ZM89.926,70.199C90.887,69.887 90.465,68.48 89.504,68.762C86.426,69.75 83.906,69.394 82.074,68.711C81.879,68.637 81.75,68.457 81.738,68.25C81.731,68.047 81.844,67.855 82.027,67.766L82.024,67.766C84.703,66.457 87.852,67.266 91,66.355C92.402,65.82 94.031,67.242 93.465,68.683C90.399,79.816 77.844,70.258 77.188,69.961C76.278,69.515 76.926,68.199 77.844,68.609C78.481,68.894 79.141,69.125 79.813,69.304C82.27,70.847 86.559,71.414 89.926,70.199ZM15.77,71.527C15.625,71.355 15.41,71.261 15.184,71.265C14.961,71.273 14.75,71.378 14.609,71.554C14.391,71.847 14.406,72.25 14.649,72.523L14.652,72.523C16.192,74.304 19.223,76.066 23.254,76.066C23.875,76.066 27.289,75.828 28.399,75.527C28.613,75.464 28.848,75.507 29.031,75.64C29.215,75.773 29.328,75.98 29.34,76.207C29.359,76.562 29.121,76.886 28.777,76.976C27.668,77.277 26.524,77.441 25.375,77.464C18.876,79.668 13.293,77.878 12.016,71.168C11.86,70.371 12.11,69.546 12.684,68.972C13.258,68.398 14.079,68.148 14.876,68.3C18.415,68.964 21.153,71.136 22.891,73.898C22.989,74.019 23.004,74.187 22.934,74.324C22.864,74.464 22.719,74.547 22.563,74.535C19.145,74.332 16.774,72.699 15.77,71.527Z"/>
    </g>
</svg>