<svg
  viewBox="0 0 480 480"
  version="1.1"
  xmlns="http://www.w3.org/2000/svg"
  xmlns:xlink="http://www.w3.org/1999/xlink"
  xml:space="preserve"
  fill="currentColor"
  stroke-linecap="round"
  stroke-linejoin="round"
  fill-rule="evenodd"
  stroke-miterlimit="2"
>
  <g transform="matrix(0.879438,0,0,0.913286,-2359.412221,-288.399745)">
    <path
      d="M3211.31,599.752C3215.695,603.847 3218.173,609.478 3218.179,615.362C3218.185,621.246 3215.72,626.882 3211.345,630.987C3073.925,758.917 2838.067,758.6 2700.218,630.811C2695.833,626.716 2693.356,621.085 2693.349,615.201C2693.343,609.317 2695.808,603.681 2700.184,599.576C2837.604,471.646 3073.461,471.963 3211.31,599.752ZM2730.449,505.069C2725.526,507.842 2719.326,507.339 2714.953,503.811C2710.58,500.284 2708.975,494.492 2710.941,489.334C2750.644,387.521 2845.355,315.782 2955.764,315.782C3066.317,315.782 3161.131,387.708 3200.714,489.742C3202.667,494.889 3201.059,500.664 3196.694,504.178C3192.329,507.692 3186.146,508.189 3181.237,505.422C3044.021,430.029 2867.519,429.806 2730.449,505.069ZM3108.3,757.282C3114.414,755.205 3121.196,757.606 3124.46,763.002C3127.725,768.398 3126.552,775.268 3121.665,779.372C3076.284,818.148 3018.563,841.357 2955.764,841.357C2892.734,841.357 2834.82,817.978 2789.341,778.968C2784.454,774.843 2783.295,767.955 2786.58,762.554C2789.865,757.153 2796.667,754.761 2802.79,756.854C2900.835,789.973 3010.273,790.133 3108.3,757.282Z"></path>
  </g>
</svg>